# xmcd CD database file
#
# Track frame offsets:
#	150
#	11330
#	31697
#	47412
#	63380
#	77600
#	90265
#	114010
#	129075
#	146912
#	159850
#	180160
#	195247
#	204877
#	221327
#
# Disc length: 3172 seconds
#
# Revision: 0
# Processed by: cddbd v1.5.2PL0 Copyright (c) Steve Scherf et al.
# Submitted via: jetAudio 7
#
DISCID=9d0c620f
DTITLE=SILVIO E ROBSON - TEMPERO BRASILEIRO
DYEAR=1900
DGENRE=Country
TTITLE0=TEMPERO BRASILEIRO
TTITLE1=MINHA OUTRA METADE
TTITLE2=A COISA
TTITLE3=PENSE
TTITLE4=AMOR GOSTOSO
TTITLE5=NÃO ACABOU COM AS MUIÉ
TTITLE6=ETERNAMENTE APAIXONADOS
TTITLE7=SAUDADE TÁ CUTUCANDO
TTITLE8=SÓ VOCÊ
TTITLE9=VONTADE DE TE VER
TTITLE10=ASSIM VOCÊ VAI ME PERDER
TTITLE11=NOVILHA
TTITLE12=PULEI O MURO
TTITLE13=EU NÃO QUERO UMA OUTRA PAIXÃO
TTITLE14=DIVINA LUZ
EXTD=
EXTT0=
EXTT1=
EXTT2=
EXTT3=
EXTT4=
EXTT5=
EXTT6=
EXTT7=
EXTT8=
EXTT9=
EXTT10=
EXTT11=
EXTT12=
EXTT13=
EXTT14=
PLAYORDER=
